# xmcd
#
# Track frame offsets:
#	150
#	13627
#	27868
#	40784
#	57769
#	75253
#	90891
#	106976
#	122656
#	138720
#	153422
#	170565
#	183862
#
# Disc length: 2654 seconds
#
# Revision: 1
# Processed by: cddbd v1.5.2PL0 Copyright (c) Steve Scherf et al.
# Submitted via: audiograbber 1.83.01
#
DISCID=920a5c0d
DTITLE=Colt Ford - Love Hope Faith
DYEAR=2017
DGENRE=Southern Rock
TTITLE0=Reload
TTITLE1=Dynamite
TTITLE2=Young Americans
TTITLE3=Dirt Road Disco
TTITLE4=4 Lane Gone
TTITLE5=My Truck
TTITLE6=Lookin For A Handout feat. Brad Paisley
TTITLE7=Time Flies feat. Toby Keith
TTITLE8=No Rest
TTITLE9=I'm Mud
TTITLE10=Bad Day
TTITLE11=Drunk Girl
TTITLE12=Keepin It Real
EXTD=
EXTT0=
EXTT1=
EXTT2=
EXTT3=
EXTT4=
EXTT5=
EXTT6=
EXTT7=
EXTT8=
EXTT9=
EXTT10=
EXTT11=
EXTT12=
PLAYORDER=
